{
  "asset": {
    "generator": "ASGARD convert_external_viking_helm",
    "version": "2.0"
  },
  "scene": 0,
  "scenes": [
    {
      "name": "Scene",
      "nodes": [
        0
      ]
    }
  ],
  "nodes": [
    {
      "mesh": 0,
      "name": "hat_external_viking"
    }
  ],
  "materials": [
    {
      "doubleSided": true,
      "name": "metal",
      "pbrMetallicRoughness": {
        "baseColorFactor": [
          0.55,
          0.58,
          0.62,
          1
        ],
        "metallicFactor": 0.35,
        "roughnessFactor": 0.45
      }
    }
  ],
  "meshes": [
    {
      "name": "hat_external_viking",
      "primitives": [
        {
          "attributes": {
            "POSITION": 0,
            "NORMAL": 1
          },
          "indices": 2,
          "material": 0
        }
      ]
    }
  ],
  "accessors": [
    {
      "bufferView": 0,
      "componentType": 5126,
      "count": 5664,
      "type": "VEC3",
      "max": [
        0.4470321238040924,
        1.0699999332427979,
        0.45381781458854675
      ],
      "min": [
        -0.4470321238040924,
        0.019999999552965164,
        -0.45381781458854675
      ]
    },
    {
      "bufferView": 1,
      "componentType": 5126,
      "count": 5664,
      "type": "VEC3"
    },
    {
      "bufferView": 2,
      "componentType": 5123,
      "count": 5664,
      "type": "SCALAR"
    }
  ],
  "bufferViews": [
    {
      "buffer": 0,
      "byteOffset": 0,
      "byteLength": 67968,
      "target": 34962
    },
    {
      "buffer": 0,
      "byteOffset": 67968,
      "byteLength": 67968,
      "target": 34962
    },
    {
      "buffer": 0,
      "byteOffset": 135936,
      "byteLength": 11328,
      "target": 34963
    }
  ],
  "buffers": [
    {
      "byteLength": 147264,
      "uri": "hat_external_viking.bin"
    }
  ]
}