<?xml version="1.0" encoding="UTF-8"?>
<svg xmlns="http://www.w3.org/2000/svg" viewBox="0 0 512 512">
<style>
  .ink          { stroke:var(--icon-ink,#1F2A3A); fill:none; stroke-linecap:round; stroke-linejoin:round; }
  .accent       { stroke:var(--icon-accent,#2E7BC0); fill:none; stroke-linecap:round; stroke-linejoin:round; }
  .ink-fill     { fill:var(--icon-ink,#1F2A3A); stroke:none; }
  .accent-fill  { fill:var(--icon-accent,#2E7BC0); stroke:none; }
  .w4  { stroke-width:4;  }
  .w5  { stroke-width:5;  }
  .w6  { stroke-width:6;  }
  .w7  { stroke-width:7;  }
  .w9  { stroke-width:9;  }
  .w10 { stroke-width:10; }
  .w12 { stroke-width:12; }
</style>
<g class="ink w10">
  <path d="M 152 124 Q 152 100, 200 100 L 312 100 Q 360 100, 360 124 L 360 388 Q 360 412, 312 412 L 200 412 Q 152 412, 152 388 Z"/>
  <path d="M 152 124 Q 152 148, 200 148 L 312 148 Q 360 148, 360 124"/>
  <line x1="152" y1="200" x2="360" y2="200"/>
  <line x1="152" y1="332" x2="360" y2="332"/>
  <rect x="240" y="76" width="48" height="32" rx="4"/>
</g>
<g class="accent w7">
  <path d="M 256 224 Q 220 264, 220 304 Q 220 340, 256 340 Q 292 340, 292 304 Q 292 264, 256 224 Z"/>
</g>
</svg>
