<?xml version="1.0" encoding="UTF-8"?>
<svg xmlns="http://www.w3.org/2000/svg" viewBox="0 0 512 512">
<style>
  .ink          { stroke:var(--icon-ink,#1F2A3A); fill:none; stroke-linecap:round; stroke-linejoin:round; }
  .accent       { stroke:var(--icon-accent,#2E7BC0); fill:none; stroke-linecap:round; stroke-linejoin:round; }
  .ink-fill     { fill:var(--icon-ink,#1F2A3A); stroke:none; }
  .accent-fill  { fill:var(--icon-accent,#2E7BC0); stroke:none; }
  .w4  { stroke-width:4;  }
  .w5  { stroke-width:5;  }
  .w6  { stroke-width:6;  }
  .w7  { stroke-width:7;  }
  .w9  { stroke-width:9;  }
  .w10 { stroke-width:10; }
  .w12 { stroke-width:12; }
</style>
<g class="ink w10">
  <rect x="80" y="304" width="352" height="136" rx="14"/>
  <line x1="80" y1="356" x2="432" y2="356"/>
  <rect x="240" y="392" width="32" height="20" rx="4"/>
</g>
<g class="ink w10">
  <rect x="120" y="200" width="36" height="104" rx="6"/>
  <rect x="200" y="180" width="36" height="124" rx="6"/>
  <rect x="280" y="200" width="36" height="104" rx="6"/>
  <rect x="360" y="220" width="36" height="84" rx="6"/>
</g>
<g class="accent w7">
  <line x1="138" y1="200" x2="138" y2="140"/>
  <line x1="218" y1="180" x2="218" y2="120"/>
  <line x1="298" y1="200" x2="298" y2="140"/>
  <line x1="378" y1="220" x2="378" y2="160"/>
</g>
<g class="accent w6">
  <line x1="128" y1="140" x2="148" y2="140"/>
  <line x1="208" y1="120" x2="228" y2="120"/>
  <line x1="288" y1="140" x2="308" y2="140"/>
  <line x1="368" y1="160" x2="388" y2="160"/>
</g>
</svg>
