<?xml version="1.0" encoding="UTF-8"?>
<svg xmlns="http://www.w3.org/2000/svg" viewBox="0 0 512 512">
<style>
  .ink          { stroke:var(--icon-ink,#1F2A3A); fill:none; stroke-linecap:round; stroke-linejoin:round; }
  .accent       { stroke:var(--icon-accent,#2E7BC0); fill:none; stroke-linecap:round; stroke-linejoin:round; }
  .ink-fill     { fill:var(--icon-ink,#1F2A3A); stroke:none; }
  .accent-fill  { fill:var(--icon-accent,#2E7BC0); stroke:none; }
  .w4  { stroke-width:4;  }
  .w5  { stroke-width:5;  }
  .w6  { stroke-width:6;  }
  .w7  { stroke-width:7;  }
  .w9  { stroke-width:9;  }
  .w10 { stroke-width:10; }
  .w12 { stroke-width:12; }
</style>
<g class="ink w10">
  <path d="M 164 84 L 164 160 L 112 192 L 112 440 L 240 440 L 248 288 L 264 288 L 272 440 L 400 440 L 400 192 L 348 160 L 348 84"/>
  <line x1="164" y1="84" x2="348" y2="84"/>
  <line x1="112" y1="192" x2="400" y2="192"/>
</g>
<g class="accent w7">
  <line x1="148" y1="240" x2="236" y2="240"/>
  <line x1="148" y1="280" x2="236" y2="280"/>
  <line x1="148" y1="320" x2="236" y2="320"/>
  <line x1="148" y1="360" x2="236" y2="360"/>
  <line x1="148" y1="400" x2="236" y2="400"/>
  <line x1="276" y1="240" x2="364" y2="240"/>
  <line x1="276" y1="280" x2="364" y2="280"/>
  <line x1="276" y1="320" x2="364" y2="320"/>
  <line x1="276" y1="360" x2="364" y2="360"/>
  <line x1="276" y1="400" x2="364" y2="400"/>
</g>
<g class="ink w4">
  <circle cx="204" cy="116" r="6"/>
  <circle cx="308" cy="116" r="6"/>
  <line x1="256" y1="84" x2="256" y2="160"/>
</g>
</svg>
