{
  "asset": {
    "generator": "ASGARD extract_kaykit_helmets",
    "version": "2.0"
  },
  "scene": 0,
  "scenes": [
    {
      "name": "Scene",
      "nodes": [
        0
      ]
    }
  ],
  "nodes": [
    {
      "mesh": 0,
      "name": "hat_mage",
      "translation": [
        1.4542331961725899e-21,
        0.542674842943921,
        -1.0233256375613564e-7
      ],
      "rotation": [
        -0.13052621483802795,
        -7.044638767591876e-15,
        -9.274443260359928e-16,
        0.9914448857307434
      ],
      "scale": [
        1,
        1,
        1
      ]
    }
  ],
  "materials": [
    {
      "doubleSided": true,
      "name": "mage_texture",
      "pbrMetallicRoughness": {
        "baseColorTexture": {
          "index": 0
        },
        "metallicFactor": 0,
        "roughnessFactor": 0.5
      }
    }
  ],
  "meshes": [
    {
      "name": "hat_mage",
      "primitives": [
        {
          "attributes": {
            "POSITION": 0,
            "NORMAL": 1,
            "TEXCOORD_0": 2
          },
          "indices": 3,
          "material": 0
        }
      ]
    }
  ],
  "textures": [
    {
      "sampler": 0,
      "source": 0
    }
  ],
  "images": [
    {
      "mimeType": "image/png",
      "name": "mage_texture",
      "uri": "mage_texture.png"
    }
  ],
  "samplers": [
    {
      "magFilter": 9729,
      "minFilter": 9987,
      "wrapS": 10497,
      "wrapT": 10497
    }
  ],
  "accessors": [
    {
      "bufferView": 0,
      "componentType": 5126,
      "count": 402,
      "type": "VEC3",
      "max": [
        1.0464543104171753,
        0.9876133799552917,
        1.0228776931762695
      ],
      "min": [
        -1.0464541912078857,
        -0.14521382749080658,
        -1.0714528560638428
      ]
    },
    {
      "bufferView": 1,
      "componentType": 5126,
      "count": 402,
      "type": "VEC3"
    },
    {
      "bufferView": 2,
      "componentType": 5126,
      "count": 402,
      "type": "VEC2"
    },
    {
      "bufferView": 3,
      "componentType": 5123,
      "count": 1188,
      "type": "SCALAR"
    }
  ],
  "bufferViews": [
    {
      "buffer": 0,
      "byteOffset": 0,
      "byteLength": 4824,
      "target": 34962
    },
    {
      "buffer": 0,
      "byteOffset": 4824,
      "byteLength": 4824,
      "target": 34962
    },
    {
      "buffer": 0,
      "byteOffset": 9648,
      "byteLength": 3216,
      "target": 34962
    },
    {
      "buffer": 0,
      "byteOffset": 12864,
      "byteLength": 2376,
      "target": 34963
    }
  ],
  "buffers": [
    {
      "byteLength": 15240,
      "uri": "hat_mage.bin"
    }
  ]
}